<svg width="183" height="74" viewBox="0 0 183 74" fill="none" xmlns="http://www.w3.org/2000/svg" preserveAspectRatio="xMinYMid meet">
<path fill-rule="evenodd" clip-rule="evenodd" d="M134.739 34.0301C134.969 33.7543 135.125 33.5853 135.195 33.5414C136.165 32.9348 144.533 32.0451 144.533 32.0451C144.533 32.0451 159.25 28.8425 160.068 28.6114C160.4 28.5176 161.136 28.5119 162.183 28.5038C163.715 28.4919 165.913 28.4749 168.489 28.1694C172.827 27.655 175.992 26.3085 175.992 26.3085C181.751 21.2798 174.709 17.2063 174.073 17.179C173.438 17.1516 170.258 17.0651 168.278 17.1425C167.498 17.173 164.991 17.3546 162.172 17.5589C157.838 17.873 152.766 18.2404 152.11 18.1933C151.027 18.1155 135.181 20.5958 135.181 20.5958C127.051 20.9507 123.096 20.5377 122.963 20.5189C122.932 20.5146 121.708 20.2615 119.846 19.8753C119.683 19.7198 119.523 19.5672 119.367 19.4178C119.606 19.4357 119.737 19.4456 119.737 19.4456C131.292 13.935 133.094 8.36297 133.173 7.02042C133.197 6.61833 133.259 6.22599 133.319 5.84601C133.458 4.95727 133.587 4.1362 133.196 3.41632C132.637 2.38867 131.864 0.96977 130.876 0.857546C130.307 0.792837 129.698 1.30345 129.033 1.86106C128.544 2.2705 128.025 2.70528 127.47 2.95624C126.546 3.3739 126.023 4.21467 125.607 4.88401C125.432 5.16461 125.276 5.41508 125.118 5.59161C124.58 6.18923 123.104 5.57893 123.104 5.57893C123.104 5.57893 121.86 6.5593 120.87 6.73274C120.049 6.87662 119.175 7.64832 118.677 8.08733C118.575 8.17751 118.489 8.25365 118.422 8.30743C118.383 8.339 118.342 8.37303 118.299 8.40847L118.298 8.40911C117.912 8.72777 117.389 9.15915 117.04 8.93477C116.652 8.68528 115.385 7.93615 114.397 7.85806C113.408 7.77997 108.03 8.77204 108.03 8.77204C100.825 8.1616 96.6843 9.1956 96.6843 9.1956C96.6843 9.1956 94.0659 9.70916 84.7483 19.0851C76.8172 27.066 72.6973 28.2864 69.8998 29.1151C69.4108 29.26 68.9622 29.3929 68.5406 29.5478C65.7078 30.5892 53.5443 31.5385 53.4762 31.2192C53.4082 30.8998 51.9041 28.366 51.9041 28.366C51.9041 28.366 43.314 28.788 41.3739 28.2997C39.4338 27.8113 36.923 27.9348 32.3631 28.189C27.8032 28.4433 15.9358 27.4496 15.9358 27.4496L5.30221 26.9586C5.30221 26.9586 2.74672 28.7563 2.62685 30.9583C2.50698 33.1604 2.60809 33.9381 2.60809 33.9381C2.60809 33.9381 1.55327 38.6694 1.39943 40.4167C1.34456 41.0398 1.20308 42.0064 1.04307 43.0996C0.754448 45.0715 0.405542 47.4552 0.395954 48.9781C0.381051 51.3452 0.610849 59.793 0.750552 60.0059C0.795708 60.0747 0.855377 60.7751 0.935598 61.7167C1.10356 63.6882 1.36162 66.7173 1.7652 67.2208C1.84083 67.3151 1.90907 67.4078 1.97385 67.4958C2.01945 67.5577 2.06333 67.6173 2.10686 67.6735L1.9245 69.3898C1.9245 69.3898 1.71373 70.4007 1.74542 70.9327C1.77711 71.4647 2.48143 71.8914 3.96547 71.9007C4.8134 71.9061 5.98633 71.6252 7.12615 71.3522C7.98123 71.1474 8.81767 70.9471 9.48429 70.8754C11.0395 70.7082 12.7753 70.2601 12.7753 70.2601C12.7753 70.2601 18.952 71.324 20.7188 71.3702C20.8882 71.3746 21.2144 71.3803 21.6739 71.3884C26.0082 71.4645 42.2067 71.7489 50.6324 73.1145C50.6324 73.1145 53.351 73.5206 55.0312 64.7676C55.0312 64.7676 59.062 64.51 60.8279 64.6981C61.4409 64.7634 61.9173 64.8575 62.3638 64.9457C63.2037 65.1116 63.9383 65.2567 65.2773 65.1502C65.9934 65.0932 67.4988 64.89 69.2422 64.6547C72.4925 64.2159 76.5705 63.6655 77.9019 63.7428C79.9477 63.8617 97.8457 67.1546 98.5866 67.3354C99.3275 67.5161 112.425 69.6495 113.592 69.4062C114.76 69.163 124.236 68.3422 128.367 68.7572C130.323 68.9536 133.804 69.4601 137.104 69.9404C140.779 70.4751 144.23 70.9772 145.103 70.9827C145.27 70.9838 145.529 70.9872 145.863 70.9916C148.857 71.0313 157.814 71.15 158.677 70.3261C159.637 69.4105 162.699 65.8282 158.719 63.754C155.989 62.3313 152.302 62.3818 149.891 62.4147C148.787 62.4298 147.951 62.4413 147.596 62.3058C146.504 61.8886 141.44 61.5119 140.187 61.4188L140.075 61.4104C139.482 61.3661 138.052 60.5799 136.953 59.926C137.962 59.8336 138.664 59.792 138.873 59.8283C140.038 60.0296 147.427 59.4581 148.329 59.3398C149.231 59.2215 163.797 58.024 163.797 58.024C163.797 58.024 170.775 58.2809 173.669 56.02C176.564 53.759 175.008 50.958 174.396 50.0881C173.848 49.3095 172.418 48.9363 171.556 48.711C171.454 48.6846 171.361 48.6602 171.278 48.6374C170.484 48.4204 166.986 48.1864 165.29 48.2817C164.68 48.316 163.511 48.4608 162.207 48.6225C159.881 48.9106 157.126 49.2521 156.345 49.1148C155.126 48.9005 148.482 48.988 147.334 49.0517C146.386 49.1043 144.574 48.6944 143.345 48.4163C143.085 48.3575 142.851 48.3046 142.656 48.2632C141.981 48.1192 139.792 48.0118 138.111 47.9292C137.026 47.876 136.152 47.8331 136.034 47.7975C135.782 47.7216 135.807 47.1181 135.824 46.7257C135.827 46.6484 135.83 46.5793 135.83 46.5241C135.832 46.1881 143.542 44.9987 147.502 44.7946C151.461 44.5904 163.651 41.9855 164.183 41.6511C164.49 41.4586 168.531 41.4587 172.284 41.4588C175.049 41.4588 177.657 41.4589 178.497 41.3819C180.477 41.2003 181.636 39.5465 181.636 39.5465C185.598 33.2281 178.848 31.0673 177.926 30.9716C177.005 30.876 170.806 30.9268 170.806 30.9268C166.206 31.8869 161.418 31.6529 161.348 31.6353C161.278 31.6178 156.925 31.5186 153.738 32.3295C151.879 32.8028 149.577 32.9419 147.314 33.0786C145.699 33.1761 144.105 33.2725 142.705 33.4881C141.173 33.7243 139.623 34.0411 138.356 34.3001C136.846 34.6089 135.738 34.8354 135.541 34.7447C135.5 34.7259 135.214 34.4698 134.739 34.0301ZM2.49066 68.4308C2.49066 68.4308 2.48883 68.2663 2.47078 68.0293C2.47815 68.0337 2.4856 68.038 2.49311 68.0422L2.49066 68.4308ZM2.33821 67.1276C2.30916 67.0082 2.27457 66.8934 2.23342 66.79C2.32503 66.9173 2.38345 67.0431 2.33821 67.1276Z" fill="black"/>
</svg>
