<svg width="438" height="338" viewBox="0 0 438 338" fill="none" xmlns="http://www.w3.org/2000/svg" preserveAspectRatio="xMinYMid meet">
<path d="M401.29 77.93C408.01 85.74 425.46 115.84 426.42 126.08C427.38 136.32 427.64 142.57 430.08 148.99C432.52 155.41 436.19 161.4 435.32 166.99C434.45 172.58 432.09 176.99 427.99 181.83C423.89 186.67 422.67 187.38 422.75 189.9C422.83 192.42 421.36 198.06 420.13 199.53C418.9 201 399.45 219.31 393.78 229.12C388.11 238.93 386.36 248.64 382.78 254.89C379.2 261.14 376.32 263.22 370.73 261.89C365.14 260.56 343.51 238.55 334.61 239.76C325.71 240.97 323.61 249.05 312.36 247.83C301.11 246.61 296.36 245.92 292.98 250.7C289.6 255.48 288.8 264.49 279.11 265.01C269.42 265.53 263.84 264.84 258.11 275.86C252.38 286.88 253.48 294.25 253.92 302.15C254.36 310.05 255.67 313.26 247.92 320.37C240.17 327.48 232.47 333.04 220.17 333.91C207.87 334.78 193.73 335.99 185.88 330.44C178.03 324.89 176.02 319.68 170.17 319.76C164.32 319.84 157.87 314.3 157.08 305.97C156.29 297.64 160.66 295.29 159.17 289.05C157.68 282.81 153.24 281.85 152.37 283.05C151.5 284.25 142.37 298.15 137.71 301.53C133.05 304.91 129.77 303.09 125.93 305.7C122.09 308.31 114.15 310.3 112.32 309.86L110.48 309.43C110.48 309.43 78.98 284.96 73.83 280.19C68.68 275.42 12.75 231.86 11.96 229.69C11.17 227.52 14.41 223.35 11.96 222.14C9.50999 220.93 5.33003 221.14 4.63003 218.23C3.11681 213.133 3.11681 207.707 4.63003 202.61C6.82003 194.89 10.74 184.39 12.23 182.83C13.72 181.27 17.37 173.46 18.51 170.83C19.65 168.2 31.42 160.9 36.57 156.3C41.72 151.7 45.39 149.36 46.78 143.54C48.17 137.72 47.22 130.62 51.49 127.14C55.76 123.66 63.27 121.42 65.37 112.83C67.47 104.24 73.31 96.17 71.91 89.14C70.51 82.11 88.91 56.25 92.51 53.65C96.11 51.05 101.32 45.75 102.45 41.65C103.58 37.55 106.99 33.06 107.45 28.11C107.91 23.16 106.84 20.91 110.33 18.48C113.82 16.05 116.39 13.27 121.06 13.27C125.73 13.27 134.06 3.81998 135.2 3.63998C136.34 3.45998 137.2 4.07998 138.6 3.63998C139.9 3.41428 141.23 3.41428 142.53 3.63998C142.53 3.63998 147.15 4.79998 161.11 8.63998C175.07 12.48 185.9 16.19 192.01 16.19C198.12 16.19 197.5 14.19 202.21 18.79C206.92 23.39 211.29 24 214.52 25.04C217.75 26.08 238.52 28.25 247.33 31.11C256.14 33.97 260.16 36.92 277.17 37.36C294.18 37.8 301.78 34.15 313.3 37.62C324.82 41.09 331.89 43.52 336.07 49.62C340.25 55.72 338.34 58.82 344.45 61.08C350.56 63.34 357.02 61.25 369.32 64.46C381.62 67.67 394.57 70.12 401.29 77.93Z" stroke="white" stroke-width="5" stroke-miterlimit="10" vector-effect="non-scaling-stroke" />
</svg>
