<svg width="625" height="334" viewBox="0 0 625 334" fill="none" xmlns="http://www.w3.org/2000/svg" preserveAspectRatio="xMinYMid meet">
<path d="M5.04998 177.96L91.72 136.72C91.72 136.72 197.31 84.25 210.36 75.65C223.41 67.05 319.36 16.26 327.82 12.74C336.28 9.22 350.52 3.21 357.58 3.34C364.64 3.47 368.58 4.91 372.85 8.04C377.12 11.17 380.68 14.7 381.47 17.83C382.26 20.96 375.47 18.22 382.25 20.96C389.03 23.7 409.25 26.05 409.25 26.05C409.25 26.05 420.86 25.4 422.95 26.05C425.04 26.7 426.21 30.62 429.61 31.14C433.01 31.66 437.04 31.01 447.61 33.14C458.18 35.27 459.35 38.49 466.4 39.4C473.45 40.31 487.54 42.27 489.5 40.97C491.46 39.67 489.37 36.79 497.72 35.1C506.07 33.41 509.86 32.35 511.04 30.79L512.21 29.22C512.21 29.22 516.39 26.22 518.87 26.48C521.35 26.74 528.39 19.83 532.57 26.61C536.75 33.39 542.36 43.45 544.32 45.8C546.28 48.15 547.06 52.45 547.84 53.63C548.62 54.81 552.28 55.19 553.32 58.72C554.36 62.25 554.89 63.29 558.8 66.16C562.71 69.03 568.72 76.21 570.16 77.16C571.6 78.11 587.65 96.09 598.87 110.83C610.09 125.57 618.87 151.83 618.87 158.99C618.87 166.15 625 192.54 618.87 203.99C612.74 215.44 614.05 222.46 608.3 231.34C602.55 240.22 598.51 238.91 594.99 247.39C591.47 255.87 589.24 252.74 587.16 257.57C585.08 262.4 584.41 263.84 581.67 270.1C578.93 276.36 576.98 278.85 570.67 279.1C564.36 279.35 563.67 283.01 560.49 289.28C557.31 295.55 551.75 296.59 547.18 298.67C542.61 300.75 542.74 305.33 529.56 305.33C516.38 305.33 520.9 306.11 516.38 305.33C511.86 304.55 489.88 317.73 481.27 315.25C472.66 312.77 468.74 311.08 464.82 315.58C460.9 320.08 444.99 325.43 443.29 322.69C441.59 319.95 441.29 316.29 438.2 318.38C435.11 320.47 428.67 329.21 424.1 330.52C419.53 331.83 417.84 322.43 411.18 320.73C404.52 319.03 388.86 319.29 385.34 317.99C381.82 316.69 378.03 312.12 373.59 313.29C369.15 314.46 367.33 324.65 361.33 323.73C355.33 322.81 350.89 321.25 337.44 326.47C323.99 331.69 316.17 331.3 307.29 326.86C298.41 322.42 281.45 326.21 278.71 324.51C275.97 322.81 270.71 311.86 260.71 309.64C250.71 307.42 246.22 299.46 242.71 306.9C239.2 314.34 237.71 321.64 232.4 318.64C227.09 315.64 217.78 313.16 212.4 312.77C207.02 312.38 200.65 307.55 197.13 304.15C193.61 300.75 189.56 303.5 186.95 306.15C184.34 308.8 177.55 312.03 172.85 308.15C168.15 304.27 155.76 298.88 144.79 303.71C144.79 303.71 137.88 308.15 137.36 306.45C136.84 304.75 127.96 299.54 124.43 300.58C120.9 301.62 109.29 307.24 104.86 304.89C100.43 302.54 100.68 292.62 95.4599 295.49C90.2399 298.36 92.33 308.02 86.85 307.24C81.37 306.46 72.62 301.89 69.62 300.97C66.62 300.05 59.18 303.06 58.26 296.27C57.34 289.48 52 284.01 45.73 286.48C39.46 288.95 30.07 270.56 31.12 265.34C32.17 260.12 33.89 256.47 29.55 253.2C25.21 249.93 21.7199 241.33 17.0199 235.58C12.3199 229.83 8.19998 215.65 8.04998 211.65C7.89998 207.65 10.05 202.38 8.04998 197.56C6.04998 192.74 -0.250025 180.49 5.04998 177.96Z" stroke="white" stroke-width="5" stroke-miterlimit="10"/>
</svg>
