<svg width="608" height="305" viewBox="0 0 608 305" fill="none" xmlns="http://www.w3.org/2000/svg" preserveAspectRatio="xMinYMid meet">
<path d="M6.18998 178.92C6.18998 178.92 67.92 148.92 72.75 145.64C77.58 142.36 133.83 117.19 138.13 114.71C142.43 112.23 297.62 30.79 307.28 25.05C316.94 19.31 350.61 -0.0100002 360.14 3.9C369.67 7.81 377.37 13.43 379.72 22.7C379.72 22.7 416 22.18 422.26 26.61C428.52 31.04 434.4 33.53 439.88 33.61C445.36 33.69 452.54 40.92 461.03 41.44C469.52 41.96 474.47 44.97 483.34 40.66C492.21 36.35 493.91 36.09 500.96 34C508.01 31.91 507.62 28.65 513.88 27.74C520.14 26.83 522.63 22 527.98 25.74C533.33 29.48 547.98 55.37 553.98 62.28C559.98 69.19 576.04 88.28 588.44 103.4C600.84 118.52 601.75 136.94 603.71 141.51C605.67 146.08 608.93 147.11 605.71 154.36C602.49 161.61 577.65 180.01 579.87 194.36C582.09 208.71 584.96 212.36 582.22 213.94C579.48 215.52 557.55 217.6 544.63 220.99C531.71 224.38 533.28 232.08 525.84 234.3C518.4 236.52 498.84 242.3 498.43 246.83C498.02 251.36 506.52 254.92 503.91 259.75C501.3 264.58 495.05 265.58 496.05 271.59C497.05 277.6 500.88 292.34 495.79 294.69C490.7 297.04 468.79 302.78 456.25 301.34C443.71 299.9 404.56 292.73 401.04 292.73C397.52 292.73 339.44 293.25 322.47 294.17C305.5 295.09 267.78 293.25 258.26 292.6C248.74 291.95 241.42 295.34 237.51 291.82C233.6 288.3 234.9 279.16 231.63 277.72C228.36 276.28 222.37 272.37 219.49 276.16C216.61 279.95 224.85 283.16 222.63 284.77C220.41 286.38 220.8 289.34 214.8 287.9C208.8 286.46 207.36 282.9 201.88 279.68C196.4 276.46 195.35 270.41 193.26 273.02C191.17 275.63 194.96 280.07 189.35 281.25C183.74 282.43 173.03 283.46 163.5 287.51C153.97 291.56 141.84 295.86 138.45 293.78C135.06 291.7 130.09 285.55 120.83 285.55C111.57 285.55 94.83 289.21 90.16 290.64C85.49 292.07 64.05 300.17 56.05 298.47C48.05 296.77 42.86 287.9 40.38 283.65C37.9 279.4 32.16 262.65 29.81 258.19C27.46 253.73 22.69 240.71 20.81 239.79C18.93 238.87 8.52998 228.65 8.26998 222.91C8.00998 217.17 5.13998 196.8 3.96998 194.72C2.79998 192.64 1.31998 181.29 6.18998 178.92Z" stroke="white" stroke-width="5" stroke-miterlimit="10"/>
</svg>
