<svg width="387" height="319" viewBox="0 0 387 319" fill="none" xmlns="http://www.w3.org/2000/svg" preserveAspectRatio="xMinYMid meet">
<path d="M3.54001 212.05C3.54001 205.92 7.07001 190.05 9.42001 187.39C11.77 184.73 16.99 180.86 18.42 178.39C19.85 175.92 18.94 172 21.95 168.21C24.96 164.42 34.6101 159.86 37.6101 155.68C40.6101 151.5 43.7401 146.68 46.6101 141.98C49.4801 137.28 49.8801 132.84 52.0901 129.45C54.2241 125.924 56.5613 122.525 59.0901 119.27C62.4901 115.02 63.0101 116.27 64.9701 108.7C66.9301 101.13 68.62 100.87 69.66 96.1701C70.7 91.4701 74.66 76.85 76.58 73.59L78.58 70.33C78.58 70.33 90.46 55.4501 95.81 48.9201C101.16 42.3901 103.51 40.31 105.6 34.83C107.69 29.35 107.03 26.34 109.51 21.9C111.99 17.46 120.87 14.9 127.13 12.12C133.39 9.34002 134.18 3.12005 138.48 2.72005C142.78 2.32005 160.02 8.20006 162.37 8.98006C164.72 9.76006 173.85 13.6801 185.08 13.6801C196.31 13.6801 200.22 15.5101 203.87 17.9901C207.52 20.4701 210.66 24.1201 217.97 25.4301C225.28 26.7401 251.12 30.5201 252.03 30.9101C261.184 32.9211 270.477 34.2315 279.83 34.83C291.19 35.35 322.25 35.61 330.34 42.26C338.43 48.91 342.09 55.1901 342.09 56.3601C342.09 57.5301 341.17 58.36 342.09 61.84C343.01 65.32 345.87 66.84 347.18 71.63C348.49 76.42 350.96 79.9801 353.05 82.9901C355.14 86.0001 355.66 86.3801 356.18 91.9901C356.7 97.6001 354.79 121.44 356.18 123.53C356.42 123.976 356.75 124.368 357.15 124.679C357.549 124.99 358.009 125.215 358.501 125.338C358.992 125.461 359.504 125.481 360.003 125.395C360.502 125.309 360.978 125.12 361.4 124.84C363.32 123.84 364.19 120.31 367.93 124.84C370.667 128.192 373.113 131.771 375.24 135.54C376.45 137.63 379.5 138.93 379.93 141.02C380.36 143.11 380.46 148.15 381.24 149.37C382.416 151.258 383.378 153.27 384.11 155.37C384.89 157.72 377.93 159.63 374.19 164.76C370.45 169.89 370.89 172.33 366.62 175.2C362.35 178.07 356.09 179.82 353.05 184.08C349.924 188.612 347.216 193.418 344.96 198.44C342.61 203.44 342.09 207.57 337.65 207.83C333.21 208.09 325.65 206.09 322.51 206.27C319.37 206.45 317.11 207.05 313.11 209.66C309.11 212.27 294.32 228.37 291.45 228.66C288.58 228.95 278.83 233.53 275.52 239.1C272.21 244.67 268.65 249.37 267.43 253.46C266.21 257.55 263.52 259.89 261.95 259.98C260.38 260.07 252.38 258.68 249.95 261.55C247.52 264.42 243.17 279.55 233.68 287.04C224.19 294.53 224.81 298.53 222.46 301.4C220.11 304.27 217.85 303.92 214.89 305.31C211.694 306.687 208.633 308.361 205.75 310.31C202.88 312.4 195.14 312.23 191.4 313.18C187.66 314.13 184.78 315.97 179.65 315.53C174.52 315.09 170.08 314.84 167.12 317.1C164.16 319.36 159.03 319.62 159.03 311.88C159.03 304.14 158.51 299.09 159.03 294.88C159.55 290.67 159.9 288.88 158.51 287.31C157.12 285.74 151.89 288.53 150.41 290.44C148.93 292.35 139.71 304.02 135.28 304.63C130.85 305.24 127.88 304.8 126.4 305.93C124.92 307.06 125.18 311.33 118.83 310.11C112.48 308.89 100.83 304.8 97.43 300.97C94.03 297.14 57.1401 267.82 54.1001 264.34C51.0601 260.86 28.17 244.59 22.77 239.28C17.37 233.97 14.42 231.8 13.64 229.1C12.86 226.4 13.72 223.8 12.33 222.84C10.94 221.88 3.89001 222.23 3.54001 219.97C3.35995 217.333 3.35995 214.687 3.54001 212.05V212.05Z" stroke="white" stroke-width="5" stroke-miterlimit="10"/>
</svg>
