<svg width="615" height="342" viewBox="0 0 615 342" fill="none" xmlns="http://www.w3.org/2000/svg" preserveAspectRatio="xMinYMid meet">
<path d="M1.26 173.59C3.88 170.46 160.99 96.59 189.26 80.59C217.53 64.59 279.06 34.79 287.48 29.93C295.9 25.07 337.07 5.41999 340.11 3.56999C343.15 1.71999 357.18 -2.91001 364.66 3.56999C372.14 10.05 372.13 14.4 375.19 18.83C378.25 23.26 404.65 22.3 404.65 22.3C404.65 22.3 410.25 22.38 414.48 22.3C418.71 22.22 418.98 26.85 423.6 29.24C428.22 31.63 437.6 28.12 441.14 29.24L456.57 34.1C456.57 34.1 472.24 37.1 479.03 35.48C485.82 33.86 491.42 30.4 496.57 27.85C501.72 25.3 503.35 23.06 507.79 22.99C512.23 22.92 512.23 22.92 516.39 22.73C520.55 22.54 520.77 19.23 522.7 19.87C524.63 20.51 537.35 39.65 539.54 44.07C541.73 48.49 550.77 61.5 552.69 63.07C554.61 64.64 579.69 87.64 583.33 93.19C586.97 98.74 597.13 116.78 600.87 122.91C604.61 129.04 609.76 142.11 611.05 147.66C612.34 153.21 612.24 181.55 612.16 183.28C612.08 185.01 612.86 190.48 610.58 194.47C608.3 198.46 606.02 207.74 606.11 209.56C606.2 211.38 596.22 219.87 595.32 224.91C594.42 229.95 594 234.02 591.9 238.71C589.8 243.4 585.67 253.02 585.06 256.14C584.45 259.26 580.85 258.57 581.64 261.34C582.43 264.11 581.9 268.34 579.79 272.01C577.68 275.68 576.2 278.69 575.06 280.34C573.92 281.99 568.92 283.55 566.64 286.58C564.36 289.61 565.24 291.18 562.17 294.13C559.1 297.08 556.64 295.52 555.06 298.81C553.48 302.1 544.71 307.92 541.12 308.7C537.53 309.48 532.61 310.35 528.75 311.3C524.45 312.546 520.05 313.416 515.6 313.9C507.18 315.03 499.46 314.95 494.55 315.73C489.64 316.51 488.15 315.21 482.45 315.73C476.75 316.25 471.22 321.45 467.89 321.36C464.56 321.27 460.52 319.63 453.42 319.54C446.32 319.45 443.77 317.98 439.21 321.37C434.502 324.787 429.373 327.584 423.95 329.69C419.3 331.43 416.84 332.99 411.06 334.63C405.28 336.27 402.55 338.88 398.95 336.72C395.35 334.56 394.22 332.03 389.48 330.72C384.74 329.41 379.13 328.55 377.64 328.64C376.15 328.73 374.13 328.55 373.17 328.64C372.21 328.73 370.27 324.82 362.38 324.22C354.49 323.62 345.54 323.22 343.44 325.52C341.34 327.82 339.93 330.29 334.49 333.06C329.05 335.83 321.95 334.97 317.22 334.45C312.49 333.93 310.22 332.54 306.72 333.45C303.22 334.36 295.03 339.59 286.72 338.52C278.41 337.45 271.89 330.41 267.51 328.77C263.13 327.13 258.74 328.94 255.93 326.95C253.12 324.96 246.02 316.54 239.36 314.72C232.7 312.9 233.04 312.98 226.46 314.46C219.88 315.94 219.46 312.55 214.1 311.59C208.74 310.63 200.59 316.54 196.73 318.1C192.87 319.66 181.56 319.4 178.14 316.19C174.72 312.98 164.98 309.6 159.2 307.86C153.42 306.12 146.57 305 138.67 307.08C130.77 309.16 127.19 311.94 120.52 311.51C113.85 311.08 90.6101 312.2 87.4601 312.37C84.3101 312.54 74.13 316.45 71.41 314.54C68.69 312.63 66.23 306.54 60.88 305.61C55.53 304.68 50.18 304.05 48.52 301.18C46.86 298.31 47.99 293.64 45.62 291.82C43.25 290 41.0601 291.38 39.8301 286.35C38.6001 281.32 39.6601 279.07 38.8301 277.51L37.9501 275.94C37.9501 275.94 30.5 266.23 29.62 260.16C28.74 254.09 30.4101 255.65 25.9401 248.16C21.4701 240.67 20.06 236.28 15.68 230.99C11.7158 226.172 8.43796 220.828 5.94006 215.11C3.84006 210.26 4.37008 209.65 3.84008 204.96C3.31008 200.27 5.33007 194.47 3.58007 190.91C1.83007 187.35 -1.37 176.72 1.26 173.59Z" stroke="white" stroke-width="5" stroke-miterlimit="10"/>
</svg>
