<svg width="439" height="330" viewBox="0 0 439 330" fill="none" xmlns="http://www.w3.org/2000/svg" preserveAspectRatio="xMinYMid meet">
<path d="M4.71999 217.14C1.58999 214.66 3.49999 193.14 12.03 182.69C20.56 172.24 22.47 168.07 25.08 163.37C27.69 158.67 42.48 154.67 46.49 145.1C50.5 135.53 46.83 139.18 62.84 112.82C78.85 86.46 72.5 80.82 75.63 74.97C78.76 69.12 95.04 54.7 99.91 44.97C104.78 35.24 108.52 19.39 108.52 19.39C113.52 12.17 123.58 9.56001 127.32 8.69001C131.06 7.82001 129.84 3.55001 138.02 2.69001C146.2 1.83001 156.64 5.69001 166.47 8.44001C176.3 11.19 184.14 10.44 190.47 11.31C196.8 12.18 200.47 16.88 206.89 20.97C211.527 24.0882 217.003 25.7206 222.59 25.65C226.59 25.65 261.59 32.27 271.32 32.44C281.05 32.61 299.86 36.65 309.43 36.65C319 36.65 325.09 39.52 332.14 45.52C339.19 51.52 335.27 57.36 342.58 59.88C349.89 62.4 389.3 65.01 398.58 74.24C407.86 83.47 420.77 111.3 424.95 118.35C429.13 125.4 433.65 153.41 434.08 154.63C434.51 155.85 436.78 163.07 435.65 164.03C434.52 164.99 423.05 172.24 417.84 178.65C412.63 185.06 412.01 189.53 410.84 192.23C409.67 194.93 410.23 196.06 407.19 196.14C404.15 196.22 402.67 196.32 399.36 199.8C396.05 203.28 394.23 208.32 393.36 210.8C392.49 213.28 391.79 216.63 389.44 217.15C387.09 217.67 381.26 218.72 379.78 220.15C378.3 221.58 372.04 228.41 370.12 230.33C368.2 232.25 364.64 233.55 359.68 236.85C354.72 240.15 354.38 244.34 351.59 245.99C348.8 247.64 346.02 251.47 342.45 245.99C338.88 240.51 341.06 235.99 337.23 236.07C333.4 236.15 332.1 235.46 325.75 237.07C319.4 238.68 319.31 238.47 316.61 240.47C313.91 242.47 314.09 243.47 309.04 243.34C303.99 243.21 301.73 241.25 297.99 243.77C294.25 246.29 290.99 248.12 286.99 251.08C282.99 254.04 276.55 258.74 272.11 260.48C267.67 262.22 262.89 261.48 259.84 262.31C256.79 263.14 256.36 263.18 254.36 267.53C252.36 271.88 253.14 276.92 252.01 280.06C250.969 283.21 248.961 285.95 246.27 287.89C243.49 289.8 235.57 296.89 233.04 299.02C230.51 301.15 232.96 303.64 225.74 304.24C218.52 304.84 216.43 302.85 213.47 306.33C210.51 309.81 212.6 311.55 206.42 314.16C200.24 316.77 195.72 318.08 193.37 319.91C191.02 321.74 189.37 327.3 185.02 327.48C180.67 327.66 179.79 323.56 175.36 321.73C170.93 319.9 167.09 321.73 164.66 319.12C162.23 316.51 156.56 313.47 156.56 307.9C156.56 302.33 156.04 298.42 157.09 295.63C158.14 292.84 160.83 292.63 160.22 288.06C159.61 283.49 159.61 282.84 157.96 282.84C156.31 282.84 147.43 288.15 143.6 294.33C139.77 300.51 135.68 306.25 132.37 306.07C129.06 305.89 131.37 306.25 129.07 305.9C126.77 305.55 125.94 310.9 120.37 310.25C114.8 309.6 113.67 313.25 90.96 292.59C68.25 271.93 49.05 253.34 41.79 250.03C34.53 246.72 14.38 232.03 14.12 227.32C13.86 222.61 16.12 221.23 12.81 220.32C9.49999 219.41 7.84999 219.65 4.71999 217.14Z" stroke="white" stroke-width="5" stroke-miterlimit="10"/>
</svg>
