<svg width="586" height="296" viewBox="0 0 586 296" fill="none" xmlns="http://www.w3.org/2000/svg" preserveAspectRatio="xMinYMid meet">
<path d="M3.70003 177.22C4.91003 175.13 11.7 179.14 40.76 162.6C69.82 146.06 96.28 130.93 103.93 129.72C111.58 128.51 223.66 65.85 227.66 63.94C231.66 62.03 339.9 5.93999 339.9 5.93999C339.9 5.93999 360.78 -3.46003 370.7 10.11C380.62 23.68 374.7 22.99 385.32 22.99C395.94 22.99 422.56 27.69 426.04 29.78C429.52 31.87 451.88 37.35 459.71 37.87C467.54 38.39 482.86 41.87 486.86 38.65C490.712 35.7764 495.087 33.6807 499.74 32.48C502.52 31.87 507.48 26.82 511.22 26.73C514.96 26.64 522.01 19.25 525.84 23.08C529.67 26.91 541.24 39.61 542.29 43.7C543.34 47.79 543.68 53.01 544.9 53.88C546.12 54.75 551.9 59.97 554.29 63.8C556.68 67.63 572.39 79.2 574.74 84.42C577.09 89.64 583.28 95.64 583.28 99.82C583.28 104 583.44 106.61 581.28 106.82C579.12 107.03 572.23 109.6 560.57 119.7C548.91 129.8 541.86 132.05 538.9 131.96C535.94 131.87 532.2 128.96 529.77 133.27C527.34 137.58 522.77 147.02 519.32 152.59C515.87 158.16 513.05 168.96 510.05 174.26C507.05 179.56 502.31 181.4 499.87 191.75C497.43 202.1 492.74 203.85 488.87 204.28C485 204.71 479.12 206.54 477.87 209.28C476.62 212.02 473.17 216.94 471.34 217.63C469.51 218.32 455.42 219.98 457.51 222.33C459.6 224.68 465.68 226.51 461.94 228.33C458.2 230.15 445.24 230.33 444.19 232.5C443.14 234.67 437.41 241.5 433.49 242.68C429.57 243.86 418.35 246.34 417.57 251.04C416.79 255.74 416.57 263.74 415.74 272.44C414.91 281.14 414.09 289.44 409.22 289.67C404.35 289.9 382.85 288.19 371.37 289.67C359.89 291.15 339.43 293.93 332.47 293.06C325.51 292.19 318.12 295.15 320.47 286.27C322.82 277.39 324.99 274.96 324.12 273.75C323.25 272.54 323.25 272.75 319.68 271.4C316.11 270.05 312.81 265.91 311.33 264.35C309.85 262.79 306.89 258.87 305.59 260.43C304.29 261.99 303.24 269.66 301.15 270.35C299.06 271.04 293.93 271.22 294.62 274.27C295.31 277.32 298.19 278.79 296.19 280.79C294.19 282.79 293.19 285.4 285.84 285.06C278.49 284.72 258.69 275.66 256.34 272.06C253.99 268.46 237.98 247.95 237.02 245.43C236.06 242.91 227.19 237.51 224.23 234.73C221.27 231.95 221.1 228.81 220.06 225.07C219.02 221.33 218.84 218.07 215.06 217.76C211.28 217.45 209.49 214.02 206.71 218.81C203.93 223.6 201.83 234.64 200.96 237.81C200.09 240.98 198.35 246.95 194.61 249.56C190.87 252.17 186.17 256.95 186.26 259.74C186.35 262.53 185.56 269.48 184.17 269.92C182.78 270.36 178.6 271.05 179.99 266.52C181.38 261.99 180.52 253.73 180.52 253.73C178.25 248.6 180.34 243.47 176.86 240.73C173.38 237.99 178.69 235.16 169.55 236.56C160.41 237.96 156.94 241.25 150.76 239.43C144.58 237.61 145.19 230.2 138.49 236.82C131.79 243.44 124.92 256.57 120.31 259C115.7 261.43 114.13 269.18 107.51 266.31C100.89 263.44 98.29 257.26 91.07 258.22C83.85 259.18 80.54 262.22 78.8 266.05C77.06 269.88 80.89 271.05 72.28 271.53C65.9968 271.696 59.7988 273.025 54 275.45C49.65 277.28 45.4799 283.37 41.7399 281.71C37.9999 280.05 32.51 275.97 31.82 270.71C31.13 265.45 31.56 260.53 28.42 256.35C25.28 252.17 21.03 242.87 18.5 240.17C15.97 237.47 4.24002 217.81 5.19002 213.28C6.14002 208.75 3.63 205.37 3.54 201.02C3.45 196.67 3.54 196.02 3.54 186.66C3.7 186.65 1.78003 180.53 3.70003 177.22Z" stroke="white" stroke-width="5" stroke-miterlimit="10"/>
</svg>
